<svg width="294" height="164" viewBox="0 0 294 164" fill="none" xmlns="http://www.w3.org/2000/svg">
<path fill-rule="evenodd" clip-rule="evenodd" d="M99.711 11.6518C98.3538 12.7849 84.1557 26.1019 68.1598 41.244C46.6153 61.6395 38.8914 69.3353 38.3639 70.932C37.2057 74.4343 38.7806 77.2278 43.544 80.1204C54.5685 86.8162 54.8744 87.0651 56.7296 90.851C58.0185 93.4805 58.4977 95.4111 58.4629 97.8291C58.4365 99.6677 55.7859 112.15 52.5736 125.568C49.3612 138.987 46.7325 150.748 46.7325 151.705C46.7325 153.889 48.062 154.442 50.0402 153.082C50.8782 152.505 65.0911 139.218 81.6249 123.554C112.703 94.112 113.715 92.9911 112.733 89.0883C112.183 86.9005 109.823 84.8761 103.733 81.3712C95.4816 76.6214 92.4664 72.6111 92.4664 66.3835C92.4664 64.7346 95.0752 52.3192 98.2637 38.7926C101.452 25.2659 104.061 13.3245 104.061 12.2557C104.061 9.4679 102.574 9.26147 99.711 11.6518Z" fill="#F2F2F2"/>
<path d="M131.017 130V89.2727H146.608C149.551 89.2727 151.997 89.7367 153.946 90.6648C155.908 91.5795 157.373 92.8324 158.341 94.4233C159.322 96.0142 159.812 97.8172 159.812 99.8324C159.812 101.49 159.494 102.908 158.858 104.088C158.222 105.255 157.366 106.203 156.293 106.932C155.219 107.661 154.019 108.185 152.693 108.503V108.901C154.138 108.98 155.524 109.424 156.849 110.233C158.188 111.028 159.282 112.155 160.131 113.614C160.979 115.072 161.403 116.835 161.403 118.903C161.403 121.011 160.893 122.907 159.872 124.591C158.851 126.261 157.313 127.58 155.259 128.548C153.204 129.516 150.618 130 147.503 130H131.017ZM138.395 123.835H146.33C149.008 123.835 150.937 123.325 152.116 122.304C153.31 121.27 153.906 119.944 153.906 118.327C153.906 117.12 153.608 116.033 153.011 115.065C152.415 114.084 151.566 113.315 150.466 112.759C149.366 112.188 148.053 111.903 146.528 111.903H138.395V123.835ZM138.395 106.594H145.693C146.966 106.594 148.113 106.362 149.134 105.898C150.154 105.42 150.956 104.751 151.54 103.889C152.136 103.014 152.435 101.98 152.435 100.787C152.435 99.2093 151.878 97.91 150.764 96.8892C149.664 95.8684 148.027 95.358 145.852 95.358H138.395V106.594ZM176.293 130.616C174.358 130.616 172.614 130.272 171.063 129.582C169.525 128.88 168.306 127.846 167.404 126.48C166.516 125.115 166.072 123.431 166.072 121.429C166.072 119.705 166.39 118.28 167.026 117.153C167.663 116.027 168.531 115.125 169.631 114.449C170.732 113.773 171.971 113.262 173.35 112.918C174.742 112.56 176.181 112.301 177.665 112.142C179.455 111.956 180.907 111.791 182.021 111.645C183.134 111.486 183.943 111.247 184.447 110.929C184.964 110.598 185.222 110.087 185.222 109.398V109.278C185.222 107.78 184.778 106.62 183.89 105.798C183.002 104.976 181.722 104.565 180.052 104.565C178.289 104.565 176.89 104.95 175.856 105.719C174.835 106.488 174.146 107.396 173.788 108.443L167.066 107.489C167.596 105.633 168.471 104.081 169.691 102.835C170.911 101.576 172.402 100.634 174.165 100.011C175.929 99.375 177.878 99.0568 180.012 99.0568C181.484 99.0568 182.949 99.2292 184.407 99.5739C185.865 99.9186 187.198 100.489 188.404 101.284C189.611 102.066 190.578 103.134 191.308 104.486C192.05 105.838 192.421 107.528 192.421 109.557V130H185.501V125.804H185.262C184.825 126.652 184.208 127.448 183.413 128.19C182.63 128.92 181.643 129.509 180.45 129.96C179.27 130.398 177.884 130.616 176.293 130.616ZM178.163 125.327C179.608 125.327 180.861 125.042 181.921 124.472C182.982 123.888 183.797 123.119 184.367 122.165C184.951 121.21 185.242 120.17 185.242 119.043V115.443C185.017 115.629 184.632 115.801 184.089 115.96C183.558 116.119 182.962 116.259 182.299 116.378C181.636 116.497 180.98 116.603 180.33 116.696C179.681 116.789 179.117 116.868 178.64 116.935C177.566 117.08 176.605 117.319 175.756 117.651C174.908 117.982 174.238 118.446 173.748 119.043C173.257 119.626 173.012 120.382 173.012 121.31C173.012 122.635 173.496 123.636 174.464 124.312C175.432 124.989 176.665 125.327 178.163 125.327ZM223.802 107.528L217.239 108.244C217.054 107.581 216.729 106.958 216.265 106.375C215.814 105.792 215.204 105.321 214.435 104.963C213.666 104.605 212.725 104.426 211.612 104.426C210.113 104.426 208.854 104.751 207.833 105.401C206.826 106.05 206.328 106.892 206.342 107.926C206.328 108.814 206.653 109.537 207.316 110.094C207.992 110.651 209.106 111.108 210.657 111.466L215.867 112.58C218.757 113.203 220.905 114.19 222.31 115.543C223.729 116.895 224.445 118.665 224.458 120.852C224.445 122.775 223.881 124.472 222.768 125.943C221.667 127.402 220.136 128.542 218.174 129.364C216.212 130.186 213.958 130.597 211.413 130.597C207.674 130.597 204.665 129.814 202.384 128.25C200.104 126.672 198.745 124.478 198.308 121.668L205.327 120.991C205.646 122.37 206.322 123.411 207.356 124.114C208.39 124.816 209.736 125.168 211.393 125.168C213.103 125.168 214.475 124.816 215.509 124.114C216.557 123.411 217.08 122.543 217.08 121.509C217.08 120.634 216.742 119.911 216.066 119.341C215.403 118.771 214.369 118.333 212.964 118.028L207.754 116.935C204.824 116.325 202.656 115.297 201.251 113.852C199.845 112.394 199.149 110.551 199.163 108.324C199.149 106.441 199.66 104.811 200.694 103.432C201.741 102.04 203.193 100.966 205.049 100.21C206.918 99.4413 209.073 99.0568 211.512 99.0568C215.092 99.0568 217.909 99.8191 219.964 101.344C222.032 102.868 223.311 104.93 223.802 107.528ZM243.917 130.597C240.854 130.597 238.21 129.96 235.982 128.688C233.768 127.402 232.065 125.585 230.871 123.239C229.678 120.879 229.082 118.101 229.082 114.906C229.082 111.764 229.678 109.007 230.871 106.634C232.078 104.247 233.762 102.391 235.923 101.065C238.084 99.7263 240.622 99.0568 243.539 99.0568C245.422 99.0568 247.198 99.3617 248.869 99.9716C250.552 100.568 252.037 101.496 253.323 102.756C254.622 104.015 255.643 105.619 256.386 107.568C257.128 109.504 257.499 111.811 257.499 114.489V116.696H232.462V111.844H250.599C250.585 110.465 250.287 109.239 249.704 108.165C249.121 107.078 248.305 106.223 247.258 105.599C246.224 104.976 245.017 104.665 243.638 104.665C242.167 104.665 240.874 105.023 239.761 105.739C238.647 106.441 237.779 107.369 237.156 108.523C236.546 109.663 236.234 110.916 236.221 112.281V116.517C236.221 118.294 236.546 119.818 237.195 121.091C237.845 122.35 238.753 123.318 239.92 123.994C241.086 124.657 242.452 124.989 244.016 124.989C245.064 124.989 246.012 124.843 246.86 124.551C247.709 124.246 248.444 123.802 249.067 123.219C249.691 122.635 250.161 121.913 250.479 121.051L257.201 121.807C256.777 123.583 255.968 125.134 254.775 126.46C253.595 127.773 252.084 128.794 250.241 129.523C248.398 130.239 246.29 130.597 243.917 130.597Z" fill="#F2F2F2"/>
<path d="M120.017 75V34.2727H146.506V40.4574H127.395V51.5142H145.134V57.6989H127.395V68.8153H146.665V75H120.017ZM162.504 75.6165C160.569 75.6165 158.825 75.2718 157.274 74.5824C155.736 73.8797 154.517 72.8456 153.615 71.4801C152.727 70.1146 152.283 68.4309 152.283 66.429C152.283 64.7055 152.601 63.2803 153.237 62.1534C153.874 61.0265 154.742 60.125 155.842 59.4489C156.943 58.7727 158.182 58.2623 159.561 57.9176C160.953 57.5597 162.392 57.3011 163.876 57.142C165.666 56.9564 167.118 56.7907 168.232 56.6449C169.345 56.4858 170.154 56.2472 170.658 55.929C171.175 55.5975 171.433 55.0871 171.433 54.3977V54.2784C171.433 52.7803 170.989 51.6203 170.101 50.7983C169.213 49.9763 167.933 49.5653 166.263 49.5653C164.5 49.5653 163.101 49.9498 162.067 50.7188C161.046 51.4877 160.357 52.3958 159.999 53.4432L153.277 52.4886C153.807 50.6326 154.682 49.0814 155.902 47.8352C157.122 46.5758 158.613 45.6345 160.376 45.0114C162.14 44.375 164.089 44.0568 166.223 44.0568C167.695 44.0568 169.16 44.2292 170.618 44.5739C172.076 44.9186 173.409 45.4886 174.615 46.2841C175.821 47.0663 176.789 48.1335 177.518 49.4858C178.261 50.8381 178.632 52.5284 178.632 54.5568V75H171.712V70.804H171.473C171.036 71.6525 170.419 72.4479 169.624 73.1903C168.841 73.9195 167.854 74.5095 166.661 74.9602C165.481 75.3977 164.095 75.6165 162.504 75.6165ZM164.374 70.3267C165.819 70.3267 167.071 70.0417 168.132 69.4716C169.193 68.8883 170.008 68.1193 170.578 67.1648C171.161 66.2102 171.453 65.1695 171.453 64.0426V60.4432C171.228 60.6288 170.843 60.8011 170.3 60.9602C169.769 61.1193 169.173 61.2585 168.51 61.3778C167.847 61.4972 167.191 61.6032 166.541 61.696C165.892 61.7888 165.328 61.8684 164.851 61.9347C163.777 62.0805 162.816 62.3191 161.967 62.6506C161.119 62.982 160.449 63.446 159.959 64.0426C159.468 64.6259 159.223 65.3816 159.223 66.3097C159.223 67.6354 159.707 68.6364 160.675 69.3125C161.643 69.9886 162.875 70.3267 164.374 70.3267ZM210.013 52.5284L203.45 53.2443C203.265 52.5814 202.94 51.9583 202.476 51.375C202.025 50.7917 201.415 50.321 200.646 49.9631C199.877 49.6051 198.936 49.4261 197.822 49.4261C196.324 49.4261 195.065 49.7509 194.044 50.4006C193.036 51.0502 192.539 51.892 192.553 52.9261C192.539 53.8144 192.864 54.5369 193.527 55.0938C194.203 55.6506 195.317 56.108 196.868 56.4659L202.078 57.5795C204.968 58.2027 207.116 59.1903 208.521 60.5426C209.94 61.8949 210.656 63.6648 210.669 65.8523C210.656 67.7746 210.092 69.4716 208.979 70.9432C207.878 72.4015 206.347 73.5417 204.385 74.3636C202.423 75.1856 200.169 75.5966 197.624 75.5966C193.885 75.5966 190.875 74.8144 188.595 73.25C186.315 71.6723 184.956 69.4782 184.518 66.6676L191.538 65.9915C191.857 67.3703 192.533 68.411 193.567 69.1136C194.601 69.8163 195.946 70.1676 197.604 70.1676C199.314 70.1676 200.686 69.8163 201.72 69.1136C202.768 68.411 203.291 67.5426 203.291 66.5085C203.291 65.6335 202.953 64.911 202.277 64.3409C201.614 63.7708 200.58 63.3333 199.175 63.0284L193.964 61.9347C191.035 61.3248 188.867 60.2973 187.462 58.8523C186.056 57.3939 185.36 55.5511 185.374 53.3239C185.36 51.4413 185.871 49.8106 186.905 48.4318C187.952 47.0398 189.404 45.9659 191.26 45.2102C193.129 44.4413 195.284 44.0568 197.723 44.0568C201.303 44.0568 204.12 44.8191 206.175 46.3438C208.243 47.8684 209.522 49.9299 210.013 52.5284ZM221.08 86.4545C220.098 86.4545 219.19 86.375 218.355 86.2159C217.533 86.0701 216.877 85.8977 216.386 85.6989L218.057 80.0909C219.104 80.3958 220.039 80.5417 220.861 80.5284C221.683 80.5152 222.405 80.2566 223.028 79.7528C223.665 79.2623 224.202 78.4403 224.639 77.2869L225.256 75.6364L214.179 44.4545H221.815L228.855 67.5227H229.173L236.233 44.4545H243.889L231.659 78.6989C231.089 80.3163 230.333 81.7017 229.392 82.8551C228.451 84.0218 227.297 84.91 225.932 85.5199C224.58 86.143 222.962 86.4545 221.08 86.4545Z" fill="#F2F2F2"/>
</svg>
